<svg width="91" height="15" viewBox="0 0 91 15" fill="none" xmlns="http://www.w3.org/2000/svg">
<path d="M77.3808 14.655C76.4561 14.655 75.7215 14.4334 75.1768 13.99C74.6321 13.534 74.3598 12.7297 74.3598 11.577L74.3475 6.58002H70.9725V4.87002H73.3785C74.0245 4.87002 74.4045 4.55336 74.5185 3.92002L74.8035 2.40002H76.3615V4.87002H80.0855V6.58002H76.3615L76.3738 11.539C76.3738 12.033 76.4815 12.3814 76.6968 12.584C76.9248 12.774 77.3111 12.869 77.8558 12.869H80.0598V14.655H77.3808Z" fill="black"/>
<path d="M67.9882 14.655C67.0635 14.655 66.3289 14.4334 65.7842 13.99C65.2396 13.534 64.9672 12.7297 64.9672 11.577L64.955 6.58002H62.58V4.87002H63.986C64.632 4.87002 65.012 4.55336 65.126 3.92002L65.411 2.40002H66.969V4.87002H71.693V6.58002H66.969L66.9812 11.539C66.9812 12.033 67.0889 12.3814 67.3042 12.584C67.5322 12.774 67.9185 12.869 68.4632 12.869H70.6672V14.655H67.9882Z" fill="black"/>
<path d="M13.7245 11.0348C13.7245 11.4332 13.7772 11.7496 13.8827 11.984C13.9882 12.2067 14.1346 12.3766 14.3221 12.4938C14.5096 12.5992 14.7206 12.6696 14.955 12.7047C15.201 12.7399 15.4647 12.7574 15.746 12.7574V14.0582C15.5936 14.0817 15.4354 14.0992 15.2714 14.111C15.1425 14.1227 14.9901 14.1285 14.8143 14.1285C14.6385 14.1403 14.4628 14.1461 14.287 14.1461C14.1112 14.1461 13.9354 14.1403 13.7596 14.1285C13.5839 14.1168 13.4257 14.0992 13.285 14.0758C12.8866 13.9938 12.576 13.818 12.3534 13.5485C12.1307 13.2789 11.9608 12.9801 11.8436 12.652C11.7264 12.3121 11.6503 11.984 11.6151 11.6676C11.5917 11.3512 11.58 11.1051 11.58 10.9293V10.7184V0.400024H13.7245V11.0348Z" fill="black"/>
<path d="M85.6375 14.6401C84.6775 14.6401 83.8308 14.4267 83.0975 14.0001C82.3641 13.5601 81.7908 12.9534 81.3774 12.1801C80.9641 11.4067 80.7574 10.5067 80.7574 9.48005C80.7574 8.44005 80.9574 7.52672 81.3574 6.74005C81.7708 5.95338 82.3441 5.34005 83.0774 4.90005C83.8241 4.46005 84.6841 4.24005 85.6574 4.24005C86.6174 4.24005 87.4441 4.46005 88.1375 4.90005C88.8308 5.32672 89.3641 5.90005 89.7374 6.62005C90.1241 7.34005 90.3175 8.13338 90.3175 9.00005C90.3175 9.13338 90.3175 9.28005 90.3175 9.44005C90.3175 9.58672 90.3108 9.75338 90.2974 9.94005H82.8374C82.9041 10.8601 83.2041 11.5601 83.7374 12.0401C84.2708 12.5067 84.8974 12.7401 85.6174 12.7401C86.2441 12.7401 86.7375 12.6134 87.0975 12.3601C87.4708 12.0934 87.7441 11.7334 87.9174 11.2801H90.0574C89.8174 12.2267 89.3174 13.0267 88.5574 13.6801C87.7974 14.3201 86.8241 14.6401 85.6375 14.6401ZM85.6375 6.08005C84.9841 6.08005 84.4041 6.28005 83.8974 6.68005C83.3908 7.06672 83.0641 7.61338 82.9174 8.32005H88.1974C88.1441 7.65338 87.8841 7.11338 87.4174 6.70005C86.9508 6.28672 86.3575 6.08005 85.6375 6.08005Z" fill="black"/>
<path d="M56.6609 14.6401C55.7009 14.6401 54.8542 14.4267 54.1209 14.0001C53.3876 13.5601 52.8142 12.9534 52.4009 12.1801C51.9875 11.4067 51.7809 10.5067 51.7809 9.48005C51.7809 8.44005 51.9809 7.52672 52.3809 6.74005C52.7942 5.95338 53.3676 5.34005 54.1009 4.90005C54.8476 4.46005 55.7075 4.24005 56.6809 4.24005C57.6409 4.24005 58.4676 4.46005 59.1609 4.90005C59.8542 5.32672 60.3875 5.90005 60.7609 6.62005C61.1475 7.34005 61.3409 8.13338 61.3409 9.00005C61.3409 9.13338 61.3409 9.28005 61.3409 9.44005C61.3409 9.58672 61.3342 9.75338 61.3209 9.94005H53.8609C53.9275 10.8601 54.2275 11.5601 54.7609 12.0401C55.2942 12.5067 55.9209 12.7401 56.6409 12.7401C57.2675 12.7401 57.7609 12.6134 58.1209 12.3601C58.4942 12.0934 58.7676 11.7334 58.9409 11.2801H61.0809C60.8409 12.2267 60.3409 13.0267 59.5809 13.6801C58.8209 14.3201 57.8476 14.6401 56.6609 14.6401ZM56.6609 6.08005C56.0076 6.08005 55.4275 6.28005 54.9209 6.68005C54.4142 7.06672 54.0876 7.61338 53.9409 8.32005H59.2209C59.1675 7.65338 58.9076 7.11338 58.4409 6.70005C57.9742 6.28672 57.3809 6.08005 56.6609 6.08005Z" fill="black"/>
<path d="M39.0487 14.4001V4.48005H40.8087L40.9887 5.64005H41.0887C41.262 5.22672 41.5287 4.89338 41.8887 4.64005C42.2487 4.37338 42.6754 4.24005 43.1687 4.24005C43.6487 4.24005 44.0687 4.36005 44.4287 4.60005C44.7887 4.84005 45.0554 5.18672 45.2287 5.64005H45.3087C45.482 5.24005 45.7554 4.90672 46.1287 4.64005C46.502 4.37338 46.962 4.24005 47.5087 4.24005C48.242 4.24005 48.7954 4.48005 49.1687 4.96005C49.5554 5.44005 49.7487 6.11338 49.7487 6.98005V14.4001H47.7087V7.40005C47.7087 7.00005 47.622 6.68672 47.4487 6.46005C47.2887 6.22005 47.0287 6.10005 46.6687 6.10005C46.3087 6.10005 46.0087 6.24005 45.7687 6.52005C45.542 6.80005 45.4287 7.19338 45.4287 7.70005V14.4001H43.3687V7.40005C43.3687 7.00005 43.2887 6.68672 43.1287 6.46005C42.9687 6.22005 42.7087 6.10005 42.3487 6.10005C41.9887 6.10005 41.6887 6.24005 41.4487 6.52005C41.2087 6.80005 41.0887 7.19338 41.0887 7.70005V14.4001H39.0487Z" fill="black"/>
<path d="M32.5566 14.6401C31.6099 14.6401 30.7632 14.4267 30.0166 14.0001C29.2699 13.5734 28.6832 12.9734 28.2566 12.2001C27.8299 11.4134 27.6166 10.4934 27.6166 9.44005C27.6166 8.38672 27.8299 7.47338 28.2566 6.70005C28.6832 5.91338 29.2699 5.30672 30.0166 4.88005C30.7632 4.45338 31.6166 4.24005 32.5766 4.24005C33.5366 4.24005 34.3832 4.45338 35.1166 4.88005C35.8632 5.30672 36.4432 5.91338 36.8566 6.70005C37.2832 7.47338 37.4966 8.38672 37.4966 9.44005C37.4966 10.4934 37.2832 11.4134 36.8566 12.2001C36.4299 12.9734 35.8432 13.5734 35.0966 14.0001C34.3632 14.4267 33.5166 14.6401 32.5566 14.6401ZM32.5566 12.6201C33.0632 12.6201 33.5299 12.5067 33.9566 12.2801C34.3832 12.0534 34.7232 11.7067 34.9766 11.2401C35.2432 10.7601 35.3766 10.1601 35.3766 9.44005C35.3766 8.70672 35.2432 8.10672 34.9766 7.64005C34.7232 7.17338 34.3832 6.82672 33.9566 6.60005C33.5432 6.37338 33.0832 6.26005 32.5766 6.26005C32.0699 6.26005 31.6032 6.37338 31.1766 6.60005C30.7499 6.82672 30.4032 7.17338 30.1366 7.64005C29.8832 8.10672 29.7566 8.70672 29.7566 9.44005C29.7566 10.5334 30.0299 11.3401 30.5766 11.8601C31.1366 12.3667 31.7966 12.6201 32.5566 12.6201Z" fill="black"/>
<path d="M21.5644 14.6401C20.6177 14.6401 19.7711 14.4267 19.0244 14.0001C18.2777 13.5734 17.6911 12.9734 17.2644 12.2001C16.8377 11.4134 16.6244 10.4934 16.6244 9.44005C16.6244 8.38672 16.8377 7.47338 17.2644 6.70005C17.6911 5.91338 18.2777 5.30672 19.0244 4.88005C19.7711 4.45338 20.6244 4.24005 21.5844 4.24005C22.5444 4.24005 23.3911 4.45338 24.1244 4.88005C24.8711 5.30672 25.4511 5.91338 25.8644 6.70005C26.2911 7.47338 26.5044 8.38672 26.5044 9.44005C26.5044 10.4934 26.2911 11.4134 25.8644 12.2001C25.4377 12.9734 24.8511 13.5734 24.1044 14.0001C23.3711 14.4267 22.5244 14.6401 21.5644 14.6401ZM21.5644 12.6201C22.0711 12.6201 22.5377 12.5067 22.9644 12.2801C23.3911 12.0534 23.7311 11.7067 23.9844 11.2401C24.2511 10.7601 24.3844 10.1601 24.3844 9.44005C24.3844 8.70672 24.2511 8.10672 23.9844 7.64005C23.7311 7.17338 23.3911 6.82672 22.9644 6.60005C22.5511 6.37338 22.0911 6.26005 21.5844 6.26005C21.0777 6.26005 20.6111 6.37338 20.1844 6.60005C19.7577 6.82672 19.4111 7.17338 19.1444 7.64005C18.8911 8.10672 18.7644 8.70672 18.7644 9.44005C18.7644 10.5334 19.0377 11.3401 19.5844 11.8601C20.1444 12.3667 20.8044 12.6201 21.5644 12.6201Z" fill="black"/>
<path d="M5.12 14.64C4.38667 14.64 3.76667 14.4933 3.26 14.2C2.76667 13.8933 2.38667 13.4733 2.12 12.94H2L1.82 14.4H0V0H2.12V5.76C2.36 5.36 2.74 5.00667 3.26 4.7C3.78 4.39333 4.4 4.24 5.12 4.24C5.94667 4.24 6.68667 4.44 7.34 4.84C7.99333 5.22667 8.50667 5.80667 8.88 6.58C9.26667 7.35333 9.46 8.30667 9.46 9.44C9.46 10.5733 9.26667 11.5267 8.88 12.3C8.50667 13.0733 7.99333 13.66 7.34 14.06C6.68667 14.4467 5.94667 14.64 5.12 14.64ZM4.68 12.62C5.44 12.62 6.06667 12.36 6.56 11.84C7.06667 11.3067 7.32 10.5133 7.32 9.46C7.32 8.39333 7.06667 7.59333 6.56 7.06C6.06667 6.52667 5.44 6.26 4.68 6.26C3.92 6.26 3.28667 6.52667 2.78 7.06C2.28667 7.58 2.04 8.37333 2.04 9.44C2.04 10.4933 2.28667 11.2867 2.78 11.82C3.28667 12.3533 3.92 12.62 4.68 12.62Z" fill="black"/>
</svg>
