<svg width="88" height="15" viewBox="0 0 88 15" fill="none" xmlns="http://www.w3.org/2000/svg">
<path d="M83.216 14.645C82.304 14.645 81.4996 14.4423 80.803 14.037C80.1063 13.619 79.5616 13.0427 79.169 12.308C78.7763 11.5733 78.58 10.7183 78.58 9.74302C78.58 8.75502 78.77 7.88735 79.15 7.14001C79.5426 6.39268 80.0873 5.81001 80.784 5.39201C81.4933 4.97401 82.3103 4.76501 83.235 4.76501C84.147 4.76501 84.9323 4.97401 85.591 5.39201C86.2496 5.79735 86.7563 6.34201 87.111 7.02601C87.4783 7.71001 87.662 8.46368 87.662 9.28701C87.662 9.41368 87.662 9.55302 87.662 9.70502C87.662 9.84435 87.6556 10.0027 87.643 10.18H80.556C80.6193 11.054 80.9043 11.719 81.411 12.175C81.9176 12.6183 82.513 12.84 83.197 12.84C83.7923 12.84 84.261 12.7197 84.603 12.479C84.9576 12.2257 85.2173 11.8837 85.382 11.453H87.415C87.187 12.3523 86.712 13.1123 85.99 13.733C85.268 14.341 84.3433 14.645 83.216 14.645ZM83.216 6.51301C82.5953 6.51301 82.0443 6.70301 81.563 7.08301C81.0816 7.45035 80.7713 7.96968 80.632 8.64102H85.648C85.5973 8.00768 85.3503 7.49468 84.907 7.10201C84.4636 6.70935 83.9 6.51301 83.216 6.51301Z" fill="black"/>
<path d="M75.424 14.417C74.5203 14.417 73.8024 14.1933 73.2701 13.7461C72.7378 13.286 72.4717 12.4745 72.4717 11.3116V6.63424H70.1508V4.90901H71.5248C72.1561 4.90901 72.5274 4.58952 72.6388 3.95054L72.9173 2.41699H74.4399V4.90901H77.1508V6.63424H74.4399V11.2732C74.4399 11.7716 74.5451 12.1231 74.7555 12.3275C74.9783 12.5192 75.3559 12.6151 75.8882 12.6151H77.1136V14.417H75.424Z" fill="black"/>
<path d="M68.4716 14.417C67.5598 14.417 66.8354 14.1933 66.2983 13.7461C65.7612 13.286 65.4927 12.4745 65.4927 11.3116V6.63424H63.1508V4.90901H64.5372C65.1742 4.90901 65.5489 4.58952 65.6613 3.95054L65.9423 2.41699H67.4786V4.90901H71.1508V6.63424H67.4786V11.2732C67.4786 11.7716 67.5848 12.1231 67.7971 12.3275C68.0219 12.5192 68.4029 12.6151 68.94 12.6151H70.1765V14.417H68.4716Z" fill="black"/>
<path d="M57.3121 14.645C56.4001 14.645 55.5958 14.4423 54.8991 14.037C54.2025 13.619 53.6578 13.0427 53.2651 12.308C52.8725 11.5733 52.6761 10.7183 52.6761 9.74302C52.6761 8.75502 52.8661 7.88735 53.2461 7.14001C53.6388 6.39268 54.1835 5.81001 54.8801 5.39201C55.5895 4.97401 56.4065 4.76501 57.3311 4.76501C58.2431 4.76501 59.0285 4.97401 59.6871 5.39201C60.3458 5.79735 60.8525 6.34201 61.2071 7.02601C61.5745 7.71001 61.7581 8.46368 61.7581 9.28701C61.7581 9.41368 61.7581 9.55302 61.7581 9.70502C61.7581 9.84435 61.7518 10.0027 61.7391 10.18H54.6521C54.7155 11.054 55.0005 11.719 55.5071 12.175C56.0138 12.6183 56.6091 12.84 57.2931 12.84C57.8885 12.84 58.3571 12.7197 58.6991 12.479C59.0538 12.2257 59.3135 11.8837 59.4781 11.453H61.5111C61.2831 12.3523 60.8081 13.1123 60.0861 13.733C59.3641 14.341 58.4395 14.645 57.3121 14.645ZM57.3121 6.51301C56.6915 6.51301 56.1405 6.70301 55.6591 7.08301C55.1778 7.45035 54.8675 7.96968 54.7281 8.64102H59.7441C59.6935 8.00768 59.4465 7.49468 59.0031 7.10201C58.5598 6.70935 57.9961 6.51301 57.3121 6.51301Z" fill="black"/>
<path d="M40.0106 14.417V4.99301H41.6826L41.8536 6.09501H41.9486C42.1133 5.70235 42.3666 5.38568 42.7086 5.14501C43.0506 4.89168 43.456 4.76501 43.9246 4.76501C44.3806 4.76501 44.7796 4.87901 45.1216 5.10701C45.4636 5.33501 45.717 5.66435 45.8816 6.09501H45.9576C46.1223 5.71501 46.382 5.39835 46.7366 5.14501C47.0913 4.89168 47.5283 4.76501 48.0476 4.76501C48.7443 4.76501 49.27 4.99301 49.6246 5.44901C49.992 5.90501 50.1756 6.54468 50.1756 7.36801V14.417H48.2376V7.76701C48.2376 7.38701 48.1553 7.08935 47.9906 6.87401C47.8386 6.64601 47.5916 6.53201 47.2496 6.53201C46.9076 6.53201 46.6226 6.66502 46.3946 6.93102C46.1793 7.19701 46.0716 7.57068 46.0716 8.05202V14.417H44.1146V7.76701C44.1146 7.38701 44.0386 7.08935 43.8866 6.87401C43.7346 6.64601 43.4876 6.53201 43.1456 6.53201C42.8036 6.53201 42.5186 6.66502 42.2906 6.93102C42.0626 7.19701 41.9486 7.57068 41.9486 8.05202V14.417H40.0106Z" fill="black"/>
<path d="M33.273 14.645C32.3736 14.645 31.5693 14.4423 30.86 14.037C30.1506 13.6317 29.5933 13.0617 29.188 12.327C28.7826 11.5797 28.58 10.7057 28.58 9.70502C28.58 8.70435 28.7826 7.83668 29.188 7.10201C29.5933 6.35468 30.1506 5.77835 30.86 5.37301C31.5693 4.96768 32.38 4.76501 33.292 4.76501C34.204 4.76501 35.0083 4.96768 35.705 5.37301C36.4143 5.77835 36.9653 6.35468 37.358 7.10201C37.7633 7.83668 37.966 8.70435 37.966 9.70502C37.966 10.7057 37.7633 11.5797 37.358 12.327C36.9526 13.0617 36.3953 13.6317 35.686 14.037C34.9893 14.4423 34.185 14.645 33.273 14.645ZM33.273 12.726C33.7543 12.726 34.1976 12.6183 34.603 12.403C35.0083 12.1877 35.3313 11.8583 35.572 11.415C35.8253 10.959 35.952 10.389 35.952 9.70502C35.952 9.00835 35.8253 8.43835 35.572 7.99501C35.3313 7.55168 35.0083 7.22235 34.603 7.00702C34.2103 6.79168 33.7733 6.68402 33.292 6.68402C32.8106 6.68402 32.3673 6.79168 31.962 7.00702C31.5566 7.22235 31.2273 7.55168 30.974 7.99501C30.7333 8.43835 30.613 9.00835 30.613 9.70502C30.613 10.7437 30.8726 11.51 31.392 12.004C31.924 12.4853 32.551 12.726 33.273 12.726Z" fill="black"/>
<path d="M22.273 14.645C21.3736 14.645 20.5693 14.4423 19.86 14.037C19.1506 13.6317 18.5933 13.0617 18.188 12.327C17.7826 11.5797 17.58 10.7057 17.58 9.70502C17.58 8.70435 17.7826 7.83668 18.188 7.10201C18.5933 6.35468 19.1506 5.77835 19.86 5.37301C20.5693 4.96768 21.38 4.76501 22.292 4.76501C23.204 4.76501 24.0083 4.96768 24.705 5.37301C25.4143 5.77835 25.9653 6.35468 26.358 7.10201C26.7633 7.83668 26.966 8.70435 26.966 9.70502C26.966 10.7057 26.7633 11.5797 26.358 12.327C25.9526 13.0617 25.3953 13.6317 24.686 14.037C23.9893 14.4423 23.185 14.645 22.273 14.645ZM22.273 12.726C22.7543 12.726 23.1976 12.6183 23.603 12.403C24.0083 12.1877 24.3313 11.8583 24.572 11.415C24.8253 10.959 24.952 10.389 24.952 9.70502C24.952 9.00835 24.8253 8.43835 24.572 7.99501C24.3313 7.55168 24.0083 7.22235 23.603 7.00702C23.2103 6.79168 22.7733 6.68402 22.292 6.68402C21.8106 6.68402 21.3673 6.79168 20.962 7.00702C20.5566 7.22235 20.2273 7.55168 19.974 7.99501C19.7333 8.43835 19.613 9.00835 19.613 9.70502C19.613 10.7437 19.8726 11.51 20.392 12.004C20.924 12.4853 21.551 12.726 22.273 12.726Z" fill="black"/>
<path d="M14.3944 11.2256C14.3944 11.6462 14.4501 11.9801 14.5614 12.2275C14.6727 12.4626 14.8274 12.6419 15.0253 12.7656C15.2232 12.877 15.4458 12.9512 15.6932 12.9883C15.953 13.0254 16.2313 13.0439 16.5282 13.0439V14.417C16.3674 14.4417 16.2004 14.4603 16.0272 14.4727C15.8912 14.485 15.7303 14.4912 15.5448 14.4912C15.3593 14.5036 15.1737 14.5098 14.9882 14.5098C14.8026 14.5098 14.6171 14.5036 14.4315 14.4912C14.246 14.4788 14.079 14.4603 13.9305 14.4355C13.51 14.349 13.1822 14.1634 12.9471 13.8789C12.7121 13.5944 12.5328 13.279 12.4091 12.9326C12.2854 12.5739 12.205 12.2275 12.1678 11.8936C12.1431 11.5596 12.1307 11.2998 12.1307 11.1143V10.8916V0H14.3944V11.2256Z" fill="black"/>
<path d="M5.12 14.657C4.38667 14.657 3.76667 14.5103 3.26 14.217C2.76667 13.9103 2.38667 13.4903 2.12 12.957H2L1.82 14.417H0V0.0169678H2.12V5.77697C2.36 5.37697 2.74 5.02363 3.26 4.71697C3.78 4.4103 4.4 4.25697 5.12 4.25697C5.94667 4.25697 6.68667 4.45697 7.34 4.85697C7.99333 5.24363 8.50667 5.82363 8.88 6.59697C9.26667 7.3703 9.46 8.32364 9.46 9.45697C9.46 10.5903 9.26667 11.5436 8.88 12.317C8.50667 13.0903 7.99333 13.677 7.34 14.077C6.68667 14.4636 5.94667 14.657 5.12 14.657ZM4.68 12.637C5.44 12.637 6.06667 12.377 6.56 11.857C7.06667 11.3236 7.32 10.5303 7.32 9.47697C7.32 8.4103 7.06667 7.6103 6.56 7.07697C6.06667 6.54363 5.44 6.27697 4.68 6.27697C3.92 6.27697 3.28667 6.54363 2.78 7.07697C2.28667 7.59697 2.04 8.3903 2.04 9.45697C2.04 10.5103 2.28667 11.3036 2.78 11.837C3.28667 12.3703 3.92 12.637 4.68 12.637Z" fill="black"/>
</svg>
